<svg width="24" height="24" viewBox="0 0 24 24" fill="none" xmlns="http://www.w3.org/2000/svg">
<path fill-rule="evenodd" clip-rule="evenodd" d="M2 12C2 6.477 6.477 2 12 2C17.523 2 22 6.477 22 12C22 17.523 17.523 22 12 22C6.477 22 2 17.523 2 12ZM12 20C7.589 20 4 16.411 4 12C4 7.589 7.589 4 12 4C16.411 4 20 7.589 20 12C20 16.411 16.411 20 12 20ZM11 8C11 7.448 11.448 7 12 7C12.552 7 13 7.448 13 8V13C13 13.552 12.552 14 12 14C11.448 14 11 13.552 11 13V8ZM11 16C11 15.448 11.448 15 12 15C12.552 15 13 15.448 13 16C13 16.552 12.552 17 12 17C11.448 17 11 16.552 11 16Z" fill="#D1D1D3"/>
<mask id="mask0_6198_26706" style="mask-type:luminance" maskUnits="userSpaceOnUse" x="2" y="2" width="20" height="20">
<path fill-rule="evenodd" clip-rule="evenodd" d="M2 12C2 6.477 6.477 2 12 2C17.523 2 22 6.477 22 12C22 17.523 17.523 22 12 22C6.477 22 2 17.523 2 12ZM12 20C7.589 20 4 16.411 4 12C4 7.589 7.589 4 12 4C16.411 4 20 7.589 20 12C20 16.411 16.411 20 12 20ZM11 8C11 7.448 11.448 7 12 7C12.552 7 13 7.448 13 8V13C13 13.552 12.552 14 12 14C11.448 14 11 13.552 11 13V8ZM11 16C11 15.448 11.448 15 12 15C12.552 15 13 15.448 13 16C13 16.552 12.552 17 12 17C11.448 17 11 16.552 11 16Z" fill="white"/>
</mask>
<g mask="url(#mask0_6198_26706)">
</g>
</svg>
