<?xml version="1.0" encoding="utf-8"?><svg viewBox="0 0 80 80" xmlns="http://www.w3.org/2000/svg" xmlns:xlink="http://www.w3.org/1999/xlink"><style>:root>svg{display:none}:root>svg:target{display:block}</style><svg viewBox="0 0 80 80" id="accept" xmlns="http://www.w3.org/2000/svg"><path d="M73.334 36.933V40A33.333 33.333 0 1153.567 9.533" stroke-width="3" stroke-linecap="round" stroke-linejoin="round"/><path d="M73.333 13.333L40 46.7l-10-10" stroke-width="3" stroke-linecap="round" stroke-linejoin="round"/></svg><svg viewBox="0 0 25 24" id="arrow-left24" xmlns="http://www.w3.org/2000/svg"><path d="M19.632 12h-14M12.632 5l-7 7 7 7" stroke-width="2" stroke-linecap="round" stroke-linejoin="round"/></svg><svg viewBox="0 0 17 16" id="arrow-right16" xmlns="http://www.w3.org/2000/svg"><g clip-path="url(#cclip0_400_6136)" stroke-width="1.5" stroke-linecap="round" stroke-linejoin="round"><path d="M1.632 8h11.666M7.465 2.167L13.298 8l-5.833 5.833"/></g><defs><clipPath id="cclip0_400_6136"><path transform="translate(.632)" d="M0 0h16v16H0z"/></clipPath></defs></svg><svg viewBox="0 0 25 24" id="arrow-right24" xmlns="http://www.w3.org/2000/svg"><path d="M5.632 12h14M12.632 5l7 7-7 7" stroke-width="2" stroke-linecap="round" stroke-linejoin="round"/></svg><svg viewBox="0 0 25 24" id="basket24" xmlns="http://www.w3.org/2000/svg"><g clip-path="url(#eclip0_346_2021)" stroke-width="2" stroke-linecap="round" stroke-linejoin="round"><path d="M9.632 22a1 1 0 100-2 1 1 0 000 2zM20.632 22a1 1 0 100-2 1 1 0 000 2zM1.632 1h4l2.68 13.39a2 2 0 002 1.61h9.72a2 2 0 002-1.61l1.6-8.39h-17"/></g><defs><clipPath id="eclip0_346_2021"><path transform="translate(.632)" d="M0 0h24v24H0z"/></clipPath></defs></svg><svg viewBox="0 0 16 16" id="broken-circle" xmlns="http://www.w3.org/2000/svg"><path d="M14.667 7.386V8a6.667 6.667 0 11-3.954-6.094" stroke-width="1.5" stroke-linecap="round" stroke-linejoin="round"/></svg><svg viewBox="0 0 25 24" id="checkbox-off24" xmlns="http://www.w3.org/2000/svg"><path d="M21.046 20.414A2 2 0 0021.632 19V5a2 2 0 00-2-2h-14a2 2 0 00-2 2v14a2 2 0 002 2h14a2 2 0 001.414-.586z" stroke-width="2" stroke-linecap="round" stroke-linejoin="round"/></svg><svg viewBox="0 0 25 24" id="checkbox-on24" xmlns="http://www.w3.org/2000/svg"><path d="M9.632 11l3 3 10-10" stroke-width="2" stroke-linecap="round" stroke-linejoin="round"/><path d="M21.632 12v7a2 2 0 01-2 2h-14a2 2 0 01-2-2V5a2 2 0 012-2h11" stroke-width="2" stroke-linecap="round" stroke-linejoin="round"/></svg><svg viewBox="0 0 25 24" id="checkbox24" xmlns="http://www.w3.org/2000/svg"><path d="M9.632 11l3 3 10-10" stroke-width="2" stroke-linecap="round" stroke-linejoin="round"/><path d="M21.632 12v7a2 2 0 01-2 2h-14a2 2 0 01-2-2V5a2 2 0 012-2h11" stroke-width="2" stroke-linecap="round" stroke-linejoin="round"/></svg><svg viewBox="0 0 25 24" id="chevron-down24" xmlns="http://www.w3.org/2000/svg"><path d="M6.632 9l6 6 6-6" stroke-width="2" stroke-linecap="round" stroke-linejoin="round"/></svg><svg viewBox="0 0 25 24" id="chevron-right24" xmlns="http://www.w3.org/2000/svg"><path d="M9.632 18l6-6-6-6" stroke-width="2" stroke-linecap="round" stroke-linejoin="round"/></svg><svg viewBox="0 0 26 24" id="chevron-up24" xmlns="http://www.w3.org/2000/svg"><path d="M19.382 15l-6.25-6-6.25 6" stroke-width="2" stroke-linecap="round" stroke-linejoin="round"/></svg><svg viewBox="0 0 25 24" id="delivery24" xmlns="http://www.w3.org/2000/svg"><g clip-path="url(#mclip0_401_9051)" stroke-width="2" stroke-linecap="round" stroke-linejoin="round"><path d="M16.632 3h-15v13h15V3zM16.632 8h4l3 3v5h-7V8zM6.132 21a2.5 2.5 0 100-5 2.5 2.5 0 000 5zM19.132 21a2.5 2.5 0 100-5 2.5 2.5 0 000 5z"/></g><defs><clipPath id="mclip0_401_9051"><path transform="translate(.632)" d="M0 0h24v24H0z"/></clipPath></defs></svg><svg viewBox="0 0 25 24" id="filter24" xmlns="http://www.w3.org/2000/svg"><g clip-path="url(#nclip0_495_12209)" stroke-width="2" stroke-linecap="round" stroke-linejoin="round"><path d="M4.632 21v-7M4.632 10V3M12.632 21v-9M12.632 8V3M20.632 21v-5M20.632 12V3M1.632 14h6M9.632 8h6M17.632 16h6"/></g><defs><clipPath id="nclip0_495_12209"><path transform="translate(.632)" d="M0 0h24v24H0z"/></clipPath></defs></svg><svg viewBox="0 0 24 24" id="info24" xmlns="http://www.w3.org/2000/svg"><path d="M12 22c5.523 0 10-4.477 10-10S17.523 2 12 2 2 6.477 2 12s4.477 10 10 10zM12 16v-4M12 8h.01" stroke-width="2" stroke-linecap="round" stroke-linejoin="round"/></svg><svg viewBox="0 0 25 24" id="mail24" xmlns="http://www.w3.org/2000/svg"><path d="M4.632 4h16c1.1 0 2 .9 2 2v12c0 1.1-.9 2-2 2h-16c-1.1 0-2-.9-2-2V6c0-1.1.9-2 2-2z" stroke-width="2" stroke-linecap="round" stroke-linejoin="round"/><path d="M22.632 6l-10 7-10-7" stroke-width="2" stroke-linecap="round" stroke-linejoin="round"/></svg><svg viewBox="0 0 21 20" id="map-marker20" xmlns="http://www.w3.org/2000/svg"><path d="M18.132 8.333c0 5.834-7.5 10.834-7.5 10.834s-7.5-5-7.5-10.834a7.5 7.5 0 0115 0z" stroke-width="1.5" stroke-linecap="round" stroke-linejoin="round"/><path d="M10.632 10.833a2.5 2.5 0 100-5 2.5 2.5 0 000 5z" stroke-width="1.5" stroke-linecap="round" stroke-linejoin="round"/></svg><svg viewBox="0 0 25 24" id="map-marker24" xmlns="http://www.w3.org/2000/svg"><path d="M21.632 10c0 7-9 13-9 13s-9-6-9-13a9 9 0 0118 0z" stroke-width="2" stroke-linecap="round" stroke-linejoin="round"/><path d="M12.632 13a3 3 0 100-6 3 3 0 000 6z" stroke-width="2" stroke-linecap="round" stroke-linejoin="round"/></svg><svg viewBox="0 0 24 24" id="menu24" xmlns="http://www.w3.org/2000/svg"><path d="M4 18h10M4 12h16M4 6h6" stroke-width="2" stroke-linecap="round" stroke-linejoin="round"/></svg><svg viewBox="0 0 25 24" id="minus24" xmlns="http://www.w3.org/2000/svg"><path d="M5.632 12h14" stroke-width="2" stroke-linecap="round" stroke-linejoin="round"/></svg><svg viewBox="0 0 25 24" id="order24" xmlns="http://www.w3.org/2000/svg"><path d="M21.632 16V8a2 2 0 00-1-1.73l-7-4a2 2 0 00-2 0l-7 4a2 2 0 00-1 1.73v8a2 2 0 001 1.73l7 4c.304.175.595.27 1 .27.404 0 .696-.095 1-.27l7-4a2 2 0 001-1.73z" stroke-width="2" stroke-miterlimit="16" stroke-linecap="round"/><path d="M3.902 6.96l8.73 5.05 8.73-5.05" stroke-width="2" stroke-linecap="round" stroke-linejoin="round"/></svg><svg viewBox="0 0 25 24" id="plus24" xmlns="http://www.w3.org/2000/svg"><path d="M12.632 5v14M5.632 12h14" stroke-width="2" stroke-linecap="round" stroke-linejoin="round"/></svg><svg viewBox="0 0 25 24" id="search24" xmlns="http://www.w3.org/2000/svg"><path d="M11.632 19a8 8 0 100-16 8 8 0 000 16zM21.632 21l-4.35-4.35" stroke-width="2" stroke-linecap="round" stroke-linejoin="round"/></svg><svg viewBox="0 0 25 24" id="user24" xmlns="http://www.w3.org/2000/svg"><path d="M20.632 21v-2a4 4 0 00-4-4h-8a4 4 0 00-4 4v2M12.632 11a4 4 0 100-8 4 4 0 000 8z" stroke-width="2" stroke-linecap="round" stroke-linejoin="round"/></svg></svg>