<svg width="180" height="46" viewBox="0 0 180 46" fill="none" xmlns="http://www.w3.org/2000/svg">
<rect x="1.78815" y="7.15234" width="35.7645" height="35.7645" rx="5.96074" fill="#FCEC41"/>
<rect y="8.94141" width="35.7645" height="35.7645" rx="5.96074" fill="#FBE303"/>
<path fill-rule="evenodd" clip-rule="evenodd" d="M14.9094 14.9902C14.8093 15.0388 14.6938 15.1539 14.6459 15.2529C14.5657 15.4185 14.5741 15.568 14.7863 17.7467C14.9104 19.0214 15.011 20.1187 15.0098 20.185C14.9982 20.8538 13.9908 20.975 13.789 20.3319C13.7609 20.2424 13.6866 19.6149 13.6238 18.9374C13.561 18.26 13.4996 17.6745 13.4873 17.6364C13.4587 17.5482 12.8509 17.8702 12.1074 18.3671C10.6321 19.3531 9.45079 20.7105 8.66859 22.3183C8.37461 22.9227 8.03189 23.9074 7.89783 24.5329L7.80518 24.9654H7.43462C6.90052 24.9654 6.67046 25.049 6.35802 25.3567C5.98193 25.7271 5.87799 26.119 6.02541 26.6104C6.11178 26.8983 6.55264 27.3326 6.84496 27.4176C7.01383 27.4668 9.54599 27.4814 17.8915 27.4814C30.1064 27.4814 29.0279 27.5205 29.4458 27.0627C29.923 26.5399 29.923 25.9068 29.4458 25.3841C29.1653 25.0768 28.8706 24.9654 28.3385 24.9654H27.9579L27.8652 24.5329C27.4302 22.5029 26.2458 20.5048 24.6668 19.1374C23.8546 18.434 22.3284 17.4752 22.276 17.6355C22.2634 17.674 22.2003 18.2718 22.1358 18.9637C22.0713 19.6556 21.9872 20.2978 21.9489 20.3909C21.868 20.5875 21.5922 20.7716 21.378 20.7718C21.0561 20.7722 20.7586 20.4928 20.7532 20.185C20.7521 20.1187 20.8528 19.0198 20.9771 17.7431C21.1997 15.4571 21.2017 15.419 21.1054 15.2429C20.9157 14.896 20.9655 14.9012 17.8735 14.9026C15.3937 14.9036 15.068 14.9133 14.9094 14.9902ZM8.96751 29.2071C8.30841 29.3657 7.79012 29.9261 7.68916 30.5893L7.65159 30.8361H6.93677C6.24876 30.8361 6.21704 30.8409 6.09134 30.9647C5.96176 31.0923 5.96069 31.1015 5.96069 32.0941C5.96069 33.0866 5.96176 33.0958 6.09134 33.2234C6.21715 33.3473 6.24839 33.3521 6.94283 33.3521H7.66367V34.2659C7.66367 34.7745 7.68842 35.2452 7.71944 35.3274C7.79374 35.5239 9.66552 37.3787 9.88382 37.4721C10.1362 37.5801 15.4056 37.5802 15.668 37.4722C15.854 37.3956 15.8712 37.3764 16.5239 36.5116C16.9853 35.9003 17.7627 35.0812 17.8815 35.0812C18.0003 35.0812 18.7778 35.9003 19.2391 36.5116C19.8918 37.3764 19.909 37.3956 20.095 37.4722C20.3575 37.5802 25.6269 37.5801 25.8792 37.4721C26.0975 37.3787 27.9693 35.5239 28.0436 35.3274C28.0746 35.2452 28.0994 34.7745 28.0994 34.2659V33.3521H28.8202C29.5147 33.3521 29.5459 33.3473 29.6717 33.2234C29.8013 33.0958 29.8024 33.0866 29.8024 32.0941C29.8024 31.1015 29.8013 31.0923 29.6717 30.9647C29.546 30.8409 29.5143 30.8361 28.8263 30.8361H28.1115L28.0738 30.5887C28.0315 30.311 27.8527 29.9332 27.6527 29.6991C27.5795 29.6133 27.3686 29.4625 27.1841 29.364L26.8488 29.1849L17.988 29.1768C13.1145 29.1723 9.05532 29.186 8.96751 29.2071ZM26.3964 32.7615V34.6871L25.7986 35.2775L25.2008 35.8681H23.0422H20.8836L20.5422 35.4094C20.3544 35.1572 19.9244 34.6777 19.5866 34.344C18.4816 33.2521 17.8402 33.1043 16.8988 33.7245C16.4468 34.0223 15.6925 34.7809 15.2142 35.4187L14.8773 35.8681H12.7215H10.5657L9.9662 35.2792L9.36665 34.6904V32.7632V30.8361H17.8815H26.3964V32.7615Z" fill="#171B24"/>
<path fill-rule="evenodd" clip-rule="evenodd" d="M12.5175 7.15289C12.5175 3.20246 15.72 0 19.6704 0C23.6209 0 26.8233 3.20246 26.8233 7.15289H24.439C24.439 4.51927 22.304 2.3843 19.6704 2.3843C17.0368 2.3843 14.9018 4.51927 14.9018 7.15289H12.5175Z" fill="#FDF074"/>
<path fill-rule="evenodd" clip-rule="evenodd" d="M10.7294 8.94195C10.7294 4.99152 13.9318 1.78906 17.8823 1.78906H18.4784C22.4288 1.78906 25.6312 4.99152 25.6312 8.94195H23.2469C23.2469 6.30833 21.112 4.17336 18.4784 4.17336H17.8823C15.2487 4.17336 13.1137 6.30833 13.1137 8.94195H10.7294Z" fill="#FBE303"/>
<path d="M52.3711 32.7555C51.3998 32.7555 50.5571 32.6484 49.843 32.4341C49.1288 32.2199 48.529 31.9199 48.0433 31.5343C47.572 31.1487 47.2078 30.6988 46.9507 30.1846C46.6936 29.6561 46.5365 29.0776 46.4794 28.4492H49.0503C49.1074 28.7491 49.2003 29.0205 49.3288 29.2633C49.4716 29.5061 49.6716 29.7204 49.9287 29.9061C50.1858 30.0917 50.5072 30.2346 50.8928 30.3345C51.2927 30.4345 51.7855 30.4845 52.3711 30.4845C52.971 30.4845 53.478 30.4345 53.8922 30.3345C54.3207 30.2203 54.6635 30.0775 54.9206 29.9061C55.1919 29.7204 55.3848 29.5061 55.499 29.2633C55.6276 29.0062 55.6918 28.7349 55.6918 28.4492C55.6918 27.7493 55.3633 27.2209 54.7063 26.8638C54.0636 26.5067 53.0566 26.1854 51.6855 25.8997C50.9142 25.7283 50.2286 25.5283 49.6288 25.2998C49.0289 25.057 48.529 24.7642 48.129 24.4214C47.7291 24.0643 47.422 23.643 47.2078 23.1574C47.0078 22.6575 46.9079 22.0647 46.9079 21.3792C46.9079 20.8221 47.0221 20.2937 47.2506 19.7938C47.4935 19.2939 47.8434 18.8582 48.3004 18.4869C48.7575 18.1155 49.3217 17.8227 49.993 17.6085C50.6785 17.3942 51.4712 17.2871 52.3711 17.2871C53.2423 17.2871 54.0065 17.3871 54.6635 17.5871C55.3205 17.787 55.8704 18.0727 56.3132 18.444C56.7702 18.8011 57.1201 19.2296 57.3629 19.7295C57.62 20.2294 57.7772 20.7793 57.8343 21.3792H55.2634C55.1491 20.8364 54.8563 20.4008 54.385 20.0723C53.9279 19.7295 53.2566 19.5581 52.3711 19.5581C51.3427 19.5581 50.6 19.7366 50.1429 20.0937C49.7002 20.4508 49.4788 20.8793 49.4788 21.3792C49.4788 22.0647 49.7644 22.5789 50.3358 22.9217C50.9071 23.2645 51.7855 23.5573 52.971 23.8001C53.8422 23.9858 54.6063 24.2 55.2634 24.4428C55.9347 24.6857 56.4917 24.9927 56.9345 25.3641C57.3772 25.7212 57.7057 26.1497 57.92 26.6496C58.1485 27.1495 58.2628 27.7493 58.2628 28.4492C58.2628 29.0634 58.1414 29.6347 57.8986 30.1631C57.6557 30.6916 57.2844 31.1487 56.7845 31.5343C56.2989 31.9199 55.6847 32.2199 54.942 32.4341C54.2136 32.6484 53.3566 32.7555 52.3711 32.7555Z" fill="white"/>
<path d="M65.1294 32.627C63.8297 32.627 62.8942 32.3484 62.3229 31.7914C61.7658 31.2344 61.4873 30.3345 61.4873 29.0919V23.1788H59.8805V21.1649H61.4873V18.594H63.844V21.1649H66.7363V23.1788H63.844V28.7706C63.844 29.4419 63.9654 29.9132 64.2082 30.1846C64.4653 30.4417 64.9509 30.5702 65.6651 30.5702C66.0935 30.5702 66.522 30.5488 66.9505 30.5059V32.5198C66.6791 32.5484 66.4006 32.5698 66.115 32.5841C65.8293 32.6127 65.5008 32.627 65.1294 32.627Z" fill="white"/>
<path d="M69.3156 21.1649H71.5008V23.0931C71.7294 22.5075 72.1007 22.0005 72.6149 21.572C73.1434 21.1435 73.7933 20.9293 74.5645 20.9293C74.9216 20.9293 75.1858 20.9435 75.3572 20.9721C75.5429 21.0007 75.6715 21.0292 75.7429 21.0578V23.2002C75.5001 23.1288 75.2787 23.0788 75.0787 23.0503C74.8788 23.0074 74.6359 22.986 74.3503 22.986C73.879 22.986 73.4719 23.0717 73.1291 23.2431C72.8006 23.4002 72.5292 23.6144 72.315 23.8858C72.1007 24.1429 71.9365 24.45 71.8222 24.8071C71.7222 25.1498 71.6722 25.5069 71.6722 25.8783V32.5198H69.3156V21.1649Z" fill="white"/>
<path d="M82.3819 32.7555C81.5964 32.7555 80.8608 32.6341 80.1752 32.3913C79.5039 32.1342 78.9183 31.7628 78.4184 31.2772C77.9185 30.7916 77.5257 30.1917 77.2401 29.4776C76.9544 28.7491 76.8116 27.9065 76.8116 26.9495V26.521C76.8116 25.6212 76.9544 24.8285 77.2401 24.1429C77.5257 23.443 77.9185 22.8574 78.4184 22.3861C78.9183 21.9005 79.5039 21.5363 80.1752 21.2935C80.8608 21.0507 81.5964 20.9293 82.3819 20.9293C83.1675 20.9293 83.8959 21.0507 84.5672 21.2935C85.2528 21.5363 85.8455 21.9005 86.3454 22.3861C86.8453 22.8574 87.2381 23.443 87.5238 24.1429C87.8094 24.8285 87.9522 25.6212 87.9522 26.521V26.9495C87.9522 27.9065 87.8094 28.7491 87.5238 29.4776C87.2381 30.1917 86.8453 30.7916 86.3454 31.2772C85.8455 31.7628 85.2528 32.1342 84.5672 32.3913C83.8959 32.6341 83.1675 32.7555 82.3819 32.7555ZM82.3819 30.6988C82.7961 30.6988 83.1889 30.6273 83.5603 30.4845C83.9459 30.3417 84.2815 30.1203 84.5672 29.8204C84.8671 29.5204 85.1028 29.1348 85.2742 28.6634C85.4599 28.1921 85.5527 27.6208 85.5527 26.9495V26.521C85.5527 25.9068 85.4599 25.3784 85.2742 24.9356C85.1028 24.4928 84.8671 24.1286 84.5672 23.843C84.2815 23.5573 83.9459 23.3431 83.5603 23.2002C83.1889 23.0574 82.7961 22.986 82.3819 22.986C81.9677 22.986 81.5678 23.0574 81.1821 23.2002C80.8108 23.3431 80.4751 23.5573 80.1752 23.843C79.8895 24.1286 79.6539 24.4928 79.4682 24.9356C79.2968 25.3784 79.2111 25.9068 79.2111 26.521V26.9495C79.2111 27.6208 79.2968 28.1921 79.4682 28.6634C79.6539 29.1348 79.8895 29.5204 80.1752 29.8204C80.4751 30.1203 80.8108 30.3417 81.1821 30.4845C81.5678 30.6273 81.9677 30.6988 82.3819 30.6988Z" fill="white"/>
<path d="M91.7032 37.0404C91.4889 37.0404 91.2747 37.0189 91.0605 36.9761V34.9194C91.2747 34.9622 91.4889 34.9836 91.7032 34.9836C91.946 34.9836 92.146 34.9408 92.3031 34.8551C92.4745 34.7837 92.6244 34.648 92.753 34.448C92.8958 34.2623 93.0315 34.0124 93.16 33.6982C93.3029 33.3839 93.46 32.9912 93.6314 32.5198L88.8109 21.1649H91.3818L94.8526 29.9489L97.9805 21.1649H100.38L95.9881 32.5198C95.6738 33.3197 95.381 34.0053 95.1097 34.5766C94.8383 35.1479 94.5383 35.6121 94.2098 35.9692C93.8956 36.3405 93.5385 36.6119 93.1386 36.7833C92.7387 36.9547 92.2602 37.0404 91.7032 37.0404Z" fill="white"/>
<path d="M102.31 17.5228H104.667V26.1139L109.38 21.1649H112.165L107.58 25.9854L112.594 32.5198H109.766L106.016 27.4851L104.667 28.8563V32.5198H102.31V17.5228Z" fill="white"/>
<path d="M117.64 32.7555C117.026 32.7555 116.476 32.6698 115.99 32.4984C115.519 32.3127 115.119 32.0628 114.791 31.7486C114.462 31.42 114.212 31.0415 114.041 30.6131C113.869 30.1846 113.784 29.7132 113.784 29.1991C113.784 28.0707 114.119 27.2352 114.791 26.6924C115.462 26.1354 116.447 25.8569 117.747 25.8569H121.282V25.2355C121.282 24.3786 121.089 23.793 120.704 23.4787C120.332 23.1502 119.74 22.986 118.926 22.986C118.197 22.986 117.661 23.1003 117.319 23.3288C116.976 23.5573 116.776 23.8715 116.719 24.2715H114.426C114.455 23.7858 114.576 23.3431 114.791 22.9431C115.019 22.5289 115.326 22.1719 115.712 21.8719C116.112 21.572 116.59 21.3435 117.147 21.1863C117.704 21.0149 118.333 20.9293 119.033 20.9293C119.732 20.9293 120.361 21.0078 120.918 21.1649C121.489 21.322 121.975 21.572 122.375 21.9148C122.775 22.2433 123.082 22.6718 123.296 23.2002C123.525 23.7287 123.639 24.3643 123.639 25.107V29.6275C123.639 30.2274 123.646 30.7559 123.66 31.2129C123.675 31.6557 123.71 32.0913 123.767 32.5198H121.625C121.582 32.1913 121.546 31.9128 121.518 31.6843C121.504 31.4558 121.496 31.1701 121.496 30.8273C121.225 31.3558 120.754 31.8128 120.082 32.1985C119.425 32.5698 118.611 32.7555 117.64 32.7555ZM118.283 30.6988C118.683 30.6988 119.061 30.6488 119.418 30.5488C119.79 30.4345 120.111 30.2774 120.382 30.0775C120.654 29.8632 120.868 29.6061 121.025 29.3062C121.196 28.992 121.282 28.6349 121.282 28.235V27.6137H118.176C117.576 27.6137 117.09 27.7422 116.719 27.9993C116.362 28.2564 116.183 28.6349 116.183 29.1348C116.183 29.6061 116.347 29.9846 116.676 30.2703C117.019 30.5559 117.554 30.6988 118.283 30.6988Z" fill="white"/>
<path d="M132.106 32.7555C131.134 32.7555 130.292 32.6484 129.578 32.4341C128.863 32.2199 128.264 31.9199 127.778 31.5343C127.307 31.1487 126.942 30.6988 126.685 30.1846C126.428 29.6561 126.271 29.0776 126.214 28.4492H128.785C128.842 28.7491 128.935 29.0205 129.063 29.2633C129.206 29.5061 129.406 29.7204 129.663 29.9061C129.92 30.0917 130.242 30.2346 130.627 30.3345C131.027 30.4345 131.52 30.4845 132.106 30.4845C132.706 30.4845 133.213 30.4345 133.627 30.3345C134.055 30.2203 134.398 30.0775 134.655 29.9061C134.927 29.7204 135.119 29.5061 135.234 29.2633C135.362 29.0062 135.426 28.7349 135.426 28.4492C135.426 27.7493 135.098 27.2209 134.441 26.8638C133.798 26.5067 132.791 26.1854 131.42 25.8997C130.649 25.7283 129.963 25.5283 129.363 25.2998C128.763 25.057 128.264 24.7642 127.864 24.4214C127.464 24.0643 127.157 23.643 126.942 23.1574C126.742 22.6575 126.642 22.0647 126.642 21.3792C126.642 20.8221 126.757 20.2937 126.985 19.7938C127.228 19.2939 127.578 18.8582 128.035 18.4869C128.492 18.1155 129.056 17.8227 129.728 17.6085C130.413 17.3942 131.206 17.2871 132.106 17.2871C132.977 17.2871 133.741 17.3871 134.398 17.5871C135.055 17.787 135.605 18.0727 136.048 18.444C136.505 18.8011 136.855 19.2296 137.098 19.7295C137.355 20.2294 137.512 20.7793 137.569 21.3792H134.998C134.884 20.8364 134.591 20.4008 134.12 20.0723C133.663 19.7295 132.991 19.5581 132.106 19.5581C131.077 19.5581 130.335 19.7366 129.878 20.0937C129.435 20.4508 129.213 20.8793 129.213 21.3792C129.213 22.0647 129.499 22.5789 130.07 22.9217C130.642 23.2645 131.52 23.5573 132.706 23.8001C133.577 23.9858 134.341 24.2 134.998 24.4428C135.669 24.6857 136.226 24.9927 136.669 25.3641C137.112 25.7212 137.44 26.1497 137.655 26.6496C137.883 27.1495 137.997 27.7493 137.997 28.4492C137.997 29.0634 137.876 29.6347 137.633 30.1631C137.39 30.6916 137.019 31.1487 136.519 31.5343C136.033 31.9199 135.419 32.2199 134.677 32.4341C133.948 32.6484 133.091 32.7555 132.106 32.7555Z" fill="white"/>
<path d="M144.864 32.627C143.564 32.627 142.629 32.3484 142.057 31.7914C141.5 31.2344 141.222 30.3345 141.222 29.0919V23.1788H139.615V21.1649H141.222V18.594H143.579V21.1649H146.471V23.1788H143.579V28.7706C143.579 29.4419 143.7 29.9132 143.943 30.1846C144.2 30.4417 144.686 30.5702 145.4 30.5702C145.828 30.5702 146.257 30.5488 146.685 30.5059V32.5198C146.414 32.5484 146.135 32.5698 145.85 32.5841C145.564 32.6127 145.235 32.627 144.864 32.627Z" fill="white"/>
<path d="M153.873 32.7555C153.088 32.7555 152.352 32.6341 151.666 32.3913C150.995 32.1342 150.41 31.7628 149.91 31.2772C149.41 30.7916 149.017 30.1917 148.731 29.4776C148.446 28.7491 148.303 27.9065 148.303 26.9495V26.521C148.303 25.6212 148.446 24.8285 148.731 24.1429C149.017 23.443 149.41 22.8574 149.91 22.3861C150.41 21.9005 150.995 21.5363 151.666 21.2935C152.352 21.0507 153.088 20.9293 153.873 20.9293C154.659 20.9293 155.387 21.0507 156.058 21.2935C156.744 21.5363 157.337 21.9005 157.837 22.3861C158.337 22.8574 158.729 23.443 159.015 24.1429C159.301 24.8285 159.443 25.6212 159.443 26.521V26.9495C159.443 27.9065 159.301 28.7491 159.015 29.4776C158.729 30.1917 158.337 30.7916 157.837 31.2772C157.337 31.7628 156.744 32.1342 156.058 32.3913C155.387 32.6341 154.659 32.7555 153.873 32.7555ZM153.873 30.6988C154.287 30.6988 154.68 30.6273 155.052 30.4845C155.437 30.3417 155.773 30.1203 156.058 29.8204C156.358 29.5204 156.594 29.1348 156.765 28.6634C156.951 28.1921 157.044 27.6208 157.044 26.9495V26.521C157.044 25.9068 156.951 25.3784 156.765 24.9356C156.594 24.4928 156.358 24.1286 156.058 23.843C155.773 23.5573 155.437 23.3431 155.052 23.2002C154.68 23.0574 154.287 22.986 153.873 22.986C153.459 22.986 153.059 23.0574 152.673 23.2002C152.302 23.3431 151.966 23.5573 151.666 23.843C151.381 24.1286 151.145 24.4928 150.959 24.9356C150.788 25.3784 150.702 25.9068 150.702 26.521V26.9495C150.702 27.6208 150.788 28.1921 150.959 28.6634C151.145 29.1348 151.381 29.5204 151.666 29.8204C151.966 30.1203 152.302 30.3417 152.673 30.4845C153.059 30.6273 153.459 30.6988 153.873 30.6988Z" fill="white"/>
<path d="M161.792 21.1649H163.977V23.0931C164.206 22.5075 164.577 22.0005 165.091 21.572C165.62 21.1435 166.27 20.9293 167.041 20.9293C167.398 20.9293 167.662 20.9435 167.833 20.9721C168.019 21.0007 168.148 21.0292 168.219 21.0578V23.2002C167.976 23.1288 167.755 23.0788 167.555 23.0503C167.355 23.0074 167.112 22.986 166.827 22.986C166.355 22.986 165.948 23.0717 165.605 23.2431C165.277 23.4002 165.005 23.6144 164.791 23.8858C164.577 24.1429 164.413 24.45 164.298 24.8071C164.198 25.1498 164.148 25.5069 164.148 25.8783V32.5198H161.792V21.1649Z" fill="white"/>
<path d="M174.858 32.7555C174.101 32.7555 173.387 32.6412 172.716 32.4127C172.044 32.1699 171.452 31.8128 170.938 31.3415C170.438 30.8559 170.038 30.2488 169.738 29.5204C169.438 28.792 169.288 27.935 169.288 26.9495V26.521C169.288 25.5783 169.431 24.7571 169.716 24.0572C170.002 23.3573 170.388 22.7789 170.873 22.3218C171.373 21.8505 171.944 21.5006 172.587 21.272C173.23 21.0435 173.915 20.9293 174.644 20.9293C176.372 20.9293 177.693 21.3934 178.607 22.3218C179.536 23.2502 180 24.5785 180 26.3068V27.5065H171.687C171.702 28.0921 171.794 28.592 171.966 29.0062C172.152 29.4062 172.387 29.7347 172.673 29.9918C172.973 30.2346 173.308 30.4131 173.68 30.5274C174.065 30.6416 174.458 30.6988 174.858 30.6988C175.672 30.6988 176.265 30.5702 176.636 30.3131C177.022 30.056 177.286 29.7204 177.429 29.3062H179.786C179.557 30.4345 178.993 31.2915 178.093 31.8771C177.208 32.4627 176.129 32.7555 174.858 32.7555ZM174.751 22.986C174.351 22.986 173.965 23.036 173.594 23.136C173.237 23.2359 172.916 23.4002 172.63 23.6287C172.359 23.843 172.137 24.1286 171.966 24.4857C171.794 24.8285 171.702 25.2498 171.687 25.7497H177.643C177.629 25.2213 177.543 24.7785 177.386 24.4214C177.243 24.0643 177.043 23.7787 176.786 23.5644C176.529 23.3502 176.222 23.2002 175.865 23.1145C175.522 23.0288 175.151 22.986 174.751 22.986Z" fill="white"/>
</svg>
